<svg width="30" height="30" viewBox="0 0 30 30" fill="none" xmlns="http://www.w3.org/2000/svg">
<path d="M15 0C6.71652 0 0 6.71652 0 15C0 23.2835 6.71652 30 15 30C23.2835 30 30 23.2835 30 15C30 6.71652 23.2835 0 15 0ZM21.4788 10.1016L14.4275 19.8783C14.3289 20.0159 14.199 20.128 14.0485 20.2053C13.8979 20.2826 13.7312 20.323 13.5619 20.323C13.3927 20.323 13.2259 20.2826 13.0754 20.2053C12.9249 20.128 12.795 20.0159 12.6964 19.8783L8.5212 14.0926C8.39397 13.9152 8.5212 13.6674 8.73884 13.6674H10.3092C10.6507 13.6674 10.9754 13.8315 11.1763 14.1127L13.5603 17.4208L18.8237 10.1217C19.0246 9.84375 19.346 9.67634 19.6908 9.67634H21.2612C21.4788 9.67634 21.606 9.92411 21.4788 10.1016Z" fill="#0A704E"/>
</svg>
