<svg width="26" height="25" viewBox="0 0 26 25" fill="none" xmlns="http://www.w3.org/2000/svg">
<path d="M14.6959 18.3725H10.8724C10.2367 18.3725 9.7253 17.8612 9.7253 17.2255V9.19608H5.53375C4.68302 9.19608 4.25765 8.16851 4.85986 7.5663L12.1293 0.292035C12.4878 -0.0664206 13.0757 -0.0664206 13.4341 0.292035L20.7084 7.5663C21.3106 8.16851 20.8852 9.19608 20.0345 9.19608H15.8429V17.2255C15.8429 17.8612 15.3315 18.3725 14.6959 18.3725ZM25.0194 17.9902V23.3431C25.0194 23.9788 24.508 24.4902 23.8724 24.4902H1.69589C1.06023 24.4902 0.548828 23.9788 0.548828 23.3431V17.9902C0.548828 17.3545 1.06023 16.8431 1.69589 16.8431H8.19589V17.2255C8.19589 18.7023 9.39552 19.902 10.8724 19.902H14.6959C16.1727 19.902 17.3724 18.7023 17.3724 17.2255V16.8431H23.8724C24.508 16.8431 25.0194 17.3545 25.0194 17.9902ZM19.0929 22.1961C19.0929 21.6703 18.6628 21.2402 18.1371 21.2402C17.6113 21.2402 17.1812 21.6703 17.1812 22.1961C17.1812 22.7218 17.6113 23.152 18.1371 23.152C18.6628 23.152 19.0929 22.7218 19.0929 22.1961ZM22.1518 22.1961C22.1518 21.6703 21.7216 21.2402 21.1959 21.2402C20.6702 21.2402 20.24 21.6703 20.24 22.1961C20.24 22.7218 20.6702 23.152 21.1959 23.152C21.7216 23.152 22.1518 22.7218 22.1518 22.1961Z" fill="url(#paint0_linear_1204_452)"/>
<defs>
<linearGradient id="paint0_linear_1204_452" x1="4.02709" y1="-32.4589" x2="42.2271" y2="-21.5155" gradientUnits="userSpaceOnUse">
<stop stop-color="#C40018"/>
<stop offset="1" stop-color="#FF6107"/>
</linearGradient>
</defs>
</svg>
