<svg width="130" height="5" viewBox="0 0 130 5" fill="none" xmlns="http://www.w3.org/2000/svg">
<path d="M2.75879 0.572754C1.65422 0.572754 0.758789 1.46818 0.758789 2.57275C0.758789 3.67732 1.65422 4.57275 2.75879 4.57275L2.75879 0.572754ZM127.69 4.57276C128.794 4.57276 129.69 3.67733 129.69 2.57277C129.69 1.4682 128.794 0.572765 127.69 0.572765L127.69 4.57276ZM2.75879 4.57275L6.66288 4.57275L6.66288 0.572754L2.75879 0.572754L2.75879 4.57275ZM14.4711 4.57275L22.2792 4.57276L22.2792 0.572756L14.4711 0.572755L14.4711 4.57275ZM30.0874 4.57276L37.8956 4.57276L37.8956 0.572757L30.0874 0.572756L30.0874 4.57276ZM45.7038 4.57276L53.512 4.57276L53.512 0.572758L45.7038 0.572758L45.7038 4.57276ZM61.3201 4.57276L69.1283 4.57276L69.1283 0.57276L61.3201 0.572759L61.3201 4.57276ZM76.9365 4.57276L84.7447 4.57276L84.7447 0.572761L76.9365 0.57276L76.9365 4.57276ZM92.5528 4.57276L100.361 4.57276L100.361 0.572762L92.5528 0.572762L92.5528 4.57276ZM108.169 4.57276L115.977 4.57276L115.977 0.572764L108.169 0.572763L108.169 4.57276ZM123.786 4.57276L127.69 4.57276L127.69 0.572765L123.786 0.572764L123.786 4.57276Z" fill="#252525"/>
</svg>
