<svg width="143" height="5" viewBox="0 0 143 5" fill="none" xmlns="http://www.w3.org/2000/svg">
<path d="M2.68684 0.572756C1.58227 0.574336 0.68812 1.47105 0.689699 2.57561C0.691279 3.68018 1.58799 4.57433 2.69256 4.57275L2.68684 0.572756ZM140.244 4.37603C141.348 4.37445 142.243 3.47774 142.241 2.37317C142.239 1.26861 141.343 0.374458 140.238 0.376037L140.244 4.37603ZM2.69256 4.57275L6.51343 4.56729L6.50771 0.567292L2.68684 0.572756L2.69256 4.57275ZM14.1552 4.55636L21.7969 4.54543L21.7912 0.545434L14.1494 0.556363L14.1552 4.55636ZM29.4386 4.5345L37.0804 4.52357L37.0747 0.523576L29.4329 0.534505L29.4386 4.5345ZM44.7221 4.51264L52.3638 4.50171L52.3581 0.501719L44.7164 0.512647L44.7221 4.51264ZM60.0056 4.49079L67.6473 4.47986L67.6416 0.479861L59.9999 0.49079L60.0056 4.49079ZM75.289 4.46893L82.9308 4.458L82.9251 0.458003L75.2833 0.468932L75.289 4.46893ZM90.5725 4.44707L98.2143 4.43614L98.2085 0.436146L90.5668 0.447075L90.5725 4.44707ZM105.856 4.42521L113.498 4.41428L113.492 0.414288L105.85 0.425217L105.856 4.42521ZM121.139 4.40336L128.781 4.39243L128.776 0.39243L121.134 0.403359L121.139 4.40336ZM136.423 4.3815L140.244 4.37603L140.238 0.376037L136.417 0.381502L136.423 4.3815Z" fill="#252525"/>
</svg>
