<svg width="143" height="5" viewBox="0 0 143 5" fill="none" xmlns="http://www.w3.org/2000/svg">
<path d="M2.68659 1C1.58202 1.00158 0.687875 1.89829 0.689455 3.00286C0.691035 4.10743 1.58774 5.00158 2.69231 5L2.68659 1ZM140.244 4.80328C141.348 4.8017 142.242 3.90499 142.241 2.80042C142.239 1.69585 141.342 0.801704 140.238 0.803283L140.244 4.80328ZM2.69231 5L6.51318 4.99453L6.50746 0.994538L2.68659 1L2.69231 5ZM14.1549 4.9836L21.7967 4.97268L21.7909 0.97268L14.1492 0.983609L14.1549 4.9836ZM29.4384 4.96175L37.0801 4.95082L37.0744 0.950822L29.4327 0.961751L29.4384 4.96175ZM44.7219 4.93989L52.3636 4.92896L52.3579 0.928965L44.7161 0.939894L44.7219 4.93989ZM60.0053 4.91803L67.6471 4.9071L67.6413 0.907107L59.9996 0.918036L60.0053 4.91803ZM75.2888 4.89617L82.9305 4.88525L82.9248 0.885249L75.2831 0.896178L75.2888 4.89617ZM90.5723 4.87432L98.214 4.86339L98.2083 0.863392L90.5666 0.874321L90.5723 4.87432ZM105.856 4.85246L113.497 4.84153L113.492 0.841534L105.85 0.852463L105.856 4.85246ZM121.139 4.8306L128.781 4.81967L128.775 0.819677L121.134 0.830605L121.139 4.8306ZM136.423 4.80874L140.244 4.80328L140.238 0.803283L136.417 0.808748L136.423 4.80874Z" fill="white"/>
</svg>
